<?xml version="1.0" encoding="utf-8"?>
<svg width="16px" height="16px" viewBox="0 0 16 16" version="1.1" xmlns:xlink="http://www.w3.org/1999/xlink" xmlns="http://www.w3.org/2000/svg">
  <defs>
    <path d="M16 0L16 0L16 16L0 16L0 0L16 0Z" id="path_1" />
    <clipPath id="clip_1">
      <use xlink:href="#path_1" clip-rule="evenodd" fill-rule="evenodd" />
    </clipPath>
  </defs>
  <g id="bullet_pattern_curve_component">
    <path d="M16 0L16 0L16 16L0 16L0 0L16 0Z" id="bullet_pattern_curve_component" fill="none" stroke="none" />
    <g id="corner" transform="translate(1.0472412 1)" clip-path="url(#clip_1)">
      <path d="M2 0L2 0L2 4L0 4L0 1C0 0.44764 0.44764 0 1 0L2 0Z" id="Rectangle" fill="#8DA5F3" stroke="none" />
      <path d="M2 0L4 0L4 2L2 2L2 0Z" id="Rectangle" fill="#8DA5F3" fill-rule="evenodd" stroke="none" />
    </g>
    <g id="corner" transform="matrix(-1 0 0 1 15 1)" clip-path="url(#clip_1)">
      <path d="M2 0L2 0L2 4L0 4L0 1C0 0.44764 0.44764 0 1 0L2 0Z" id="Rectangle" fill="#8DA5F3" stroke="none" />
      <path d="M2 0L4 0L4 2L2 2L2 0Z" id="Rectangle" fill="#8DA5F3" fill-rule="evenodd" stroke="none" />
    </g>
    <g id="corner" transform="matrix(-1 0 0 -1 15 15)" clip-path="url(#clip_1)">
      <path d="M2 0L2 0L2 4L0 4L0 1C0 0.44764 0.44764 0 1 0L2 0Z" id="Rectangle" fill="#8DA5F3" stroke="none" />
      <path d="M2 0L4 0L4 2L2 2L2 0Z" id="Rectangle" fill="#8DA5F3" fill-rule="evenodd" stroke="none" />
    </g>
    <g id="corner" transform="matrix(1 0 0 -1 1 15)" clip-path="url(#clip_1)">
      <path d="M2 0L2 0L2 4L0 4L0 1C0 0.44764 0.44764 0 1 0L2 0Z" id="Rectangle" fill="#8DA5F3" stroke="none" />
      <path d="M2 0L4 0L4 2L2 2L2 0Z" id="Rectangle" fill="#8DA5F3" fill-rule="evenodd" stroke="none" />
    </g>
    <g id="Group" transform="translate(5 5)" clip-path="url(#clip_1)">
      <path d="M4.88892 2.77783C5.50263 2.77783 6 3.2752 6 3.88892L6 3.88892C6 4.50263 5.50263 5 4.88892 5L3.2105 5L3.2105 2.77783L4.88892 2.77783Z" id="Rectangle" fill="#8DA5F3" stroke="none" />
      <path d="M0 0.000109652C1.99119 -0.0240432 0.290907 3.95 3.71934 3.88892" id="Vector" fill="none" fill-rule="evenodd" stroke="#8DA5F3" stroke-width="1" stroke-linecap="round" />
    </g>
  </g>
</svg>