<?xml version="1.0" encoding="utf-8"?>
<svg width="16px" height="16px" viewBox="0 0 16 16" version="1.1" xmlns:xlink="http://www.w3.org/1999/xlink" xmlns="http://www.w3.org/2000/svg">
  <defs>
    <path d="M16 0L16 0L16 16L0 16L0 0L16 0Z" id="path_1" />
    <clipPath id="clip_1">
      <use xlink:href="#path_1" clip-rule="evenodd" fill-rule="evenodd" />
    </clipPath>
  </defs>
  <g id="Icon 16">
    <path d="M16 0L16 0L16 16L0 16L0 0L16 0Z" id="Icon-16" fill="none" stroke="none" />
    <g id="corner" transform="translate(1.0472412 1)" clip-path="url(#clip_1)">
      <path d="M2 0L2 0L2 4L0 4L0 1C0 0.44764 0.44764 0 1 0L2 0Z" id="Rectangle" fill="#8DA5F3" stroke="none" />
      <path d="M2 0L4 0L4 2L2 2L2 0Z" id="Rectangle" fill="#8DA5F3" fill-rule="evenodd" stroke="none" />
    </g>
    <g id="corner" transform="matrix(-1 0 0 1 15 1)" clip-path="url(#clip_1)">
      <path d="M2 0L2 0L2 4L0 4L0 1C0 0.44764 0.44764 0 1 0L2 0Z" id="Rectangle" fill="#8DA5F3" stroke="none" />
      <path d="M2 0L4 0L4 2L2 2L2 0Z" id="Rectangle" fill="#8DA5F3" fill-rule="evenodd" stroke="none" />
    </g>
    <g id="corner" transform="matrix(-1 0 0 -1 15 15)" clip-path="url(#clip_1)">
      <path d="M2 0L2 0L2 4L0 4L0 1C0 0.44764 0.44764 0 1 0L2 0Z" id="Rectangle" fill="#8DA5F3" stroke="none" />
      <path d="M2 0L4 0L4 2L2 2L2 0Z" id="Rectangle" fill="#8DA5F3" fill-rule="evenodd" stroke="none" />
    </g>
    <g id="corner" transform="matrix(1 -0 0 -1 1 15)" clip-path="url(#clip_1)">
      <path d="M2 0L2 0L2 4L0 4L0 1C0 0.44764 0.44764 0 1 0L2 0Z" id="Rectangle" fill="#8DA5F3" stroke="none" />
      <path d="M2 0L4 0L4 2L2 2L2 0Z" id="Rectangle" fill="#8DA5F3" fill-rule="evenodd" stroke="none" />
    </g>
    <path d="M6.67987 7.8457L9.71942 4L12.0472 4L12.0472 6.32943L8.26457 9.41593C8.26457 9.41593 7.76283 8.26252 6.67987 7.8457L6.67987 7.8457ZM4.737 9.05041L5.12753 9.53937L4.24689 10.5985C4.21341 10.6387 4.18384 10.6817 4.15817 10.7274C4.1325 10.773 4.11115 10.8206 4.09413 10.8702C4.07711 10.9197 4.0647 10.9704 4.0569 11.0222C4.04909 11.074 4.04602 11.1261 4.04768 11.1785C4.04934 11.2308 4.05571 11.2826 4.06679 11.3339C4.07786 11.3851 4.09346 11.4348 4.11359 11.4832C4.13371 11.5316 4.15803 11.5777 4.18655 11.6217C4.21506 11.6656 4.2473 11.7066 4.28327 11.7446L4.28463 11.7461C4.31987 11.7834 4.35831 11.817 4.39993 11.847C4.44155 11.877 4.48561 11.9028 4.53212 11.9244C4.57863 11.9461 4.62675 11.9631 4.67649 11.9756C4.72622 11.9881 4.77669 11.9958 4.82788 11.9987C4.87908 12.0016 4.93009 11.9997 4.98091 11.9929C5.03174 11.9861 5.08148 11.9746 5.13013 11.9583C5.17877 11.9421 5.22546 11.9214 5.27019 11.8963C5.31493 11.8712 5.35691 11.8421 5.39613 11.8091L6.53725 10.8468L6.99427 11.2968C7.02458 11.3266 7.05746 11.3533 7.09289 11.3768C7.12833 11.4003 7.16568 11.4203 7.20494 11.4366C7.2442 11.4529 7.28466 11.4653 7.3263 11.4739C7.36796 11.4824 7.41004 11.4869 7.45254 11.4873C7.49505 11.4878 7.53721 11.4841 7.57902 11.4765C7.62083 11.4688 7.66153 11.4572 7.70112 11.4416C7.7407 11.4261 7.77845 11.407 7.81436 11.3842C7.85027 11.3614 7.88368 11.3354 7.9146 11.3062L7.97438 11.2497C8.01104 11.215 8.0445 11.1775 8.07475 11.1371C8.105 11.0967 8.1316 11.054 8.15455 11.0091C8.1775 10.9641 8.19646 10.9175 8.21144 10.8693C8.22642 10.8211 8.23721 10.772 8.24378 10.7219C8.25036 10.6719 8.25264 10.6216 8.25062 10.5712C8.2486 10.5207 8.24232 10.4708 8.23177 10.4214C8.22121 10.3721 8.20654 10.3239 8.18776 10.2771C8.16897 10.2302 8.14635 10.1853 8.11988 10.1423L7.90003 9.78535C7.70365 9.46646 7.47291 9.17483 7.20781 8.91047C6.94271 8.6461 6.65054 8.41626 6.33129 8.22093L5.81208 7.90328C5.7722 7.87889 5.73052 7.85814 5.68702 7.84104C5.64352 7.82395 5.59888 7.81076 5.55308 7.80149C5.50727 7.79222 5.46102 7.787 5.41431 7.78582C5.3676 7.78465 5.32114 7.78755 5.27493 7.79452C5.22872 7.80148 5.18347 7.81241 5.13917 7.8273C5.09488 7.8422 5.05221 7.86083 5.01116 7.88319C4.97012 7.90556 4.93133 7.93132 4.89479 7.96048C4.85824 7.98964 4.8245 8.02176 4.79356 8.05683L4.76034 8.09449C4.73165 8.12701 4.70601 8.16179 4.68341 8.19881C4.6608 8.23583 4.64159 8.27454 4.62576 8.31493C4.60993 8.35532 4.59772 8.39679 4.58915 8.43932C4.58057 8.48186 4.57576 8.52481 4.5747 8.56819C4.57364 8.61157 4.57635 8.65471 4.58284 8.69761C4.58933 8.74052 4.5995 8.78253 4.61333 8.82365C4.62717 8.86477 4.64448 8.90437 4.66525 8.94245C4.68602 8.98053 4.70993 9.01652 4.737 9.05041L4.737 9.05041Z" id="Group#1" fill="#8DA5F3" fill-rule="evenodd" stroke="none" clip-path="url(#clip_1)" />
  </g>
</svg>