<?xml version="1.0" encoding="utf-8"?>
<svg width="16px" height="16px" viewBox="0 0 16 16" version="1.1" xmlns:xlink="http://www.w3.org/1999/xlink" xmlns="http://www.w3.org/2000/svg">
  <defs>
    <path d="M16 0L16 0L16 16L0 16L0 0L16 0Z" id="path_1" />
    <path d="M4 0L4 0L4 4L0 4L0 0L4 0Z" id="path_2" />
    <clipPath id="clip_1">
      <use xlink:href="#path_1" clip-rule="evenodd" fill-rule="evenodd" />
    </clipPath>
    <clipPath id="clip_2">
      <use xlink:href="#path_2" clip-rule="evenodd" fill-rule="evenodd" />
    </clipPath>
  </defs>
  <g id="MoveControlIcon">
    <path d="M16 0L16 0L16 16L0 16L0 0L16 0Z" id="MoveControlIcon" fill="none" stroke="none" />
    <g id="Group" transform="translate(1.0162137 0.99984425)" clip-path="url(#clip_1)">
      <path d="M6.98379 0.000155747C6.72443 0.0038678 6.47666 0.10821 6.29279 0.291156L4.29279 2.29116L5.70679 3.70516L6.99979 2.41216L8.29279 3.70516L9.70679 2.29116L7.70679 0.291156C7.51506 0.100369 7.25422 -0.00461453 6.98379 0.000155747L6.98379 0.000155747ZM2.29279 4.29116L0.292786 6.29116C-0.0975955 6.68166 -0.0975955 7.31466 0.292786 7.70516L2.29279 9.70516L3.70679 8.29116L2.41379 6.99816L3.70679 5.70516L2.29279 4.29116L2.29279 4.29116ZM11.7068 4.29116L10.2928 5.70516L11.5858 6.99816L10.2928 8.29116L11.7068 9.70516L13.7068 7.70516C14.0972 7.31466 14.0972 6.68166 13.7068 6.29116L11.7068 4.29116L11.7068 4.29116ZM5.70679 10.2912L4.29279 11.7052L6.29279 13.7052C6.68329 14.0955 7.31629 14.0955 7.70679 13.7052L9.70679 11.7052L8.29279 10.2912L6.99979 11.5842L5.70679 10.2912L5.70679 10.2912Z" id="Shape" fill="#E0E0E0" fill-rule="evenodd" stroke="none" />
      <path d="M6 5C6 4.44772 6.44772 4 7 4C7.55228 4 8 4.44772 8 5C8 5.55228 7.55228 6 7 6C6.44772 6 6 5.55228 6 5Z" id="Oval" fill="#8DA5F3" fill-rule="evenodd" stroke="none" />
      <g id="touch-f">
        <path d="M4 0L4 0L4 4L0 4L0 0L4 0Z" id="touch-f" fill="none" stroke="none" transform="translate(5 5)" />
        <path d="M1.64999 0.166667C1.84999 0.166667 2.01666 0.333333 2.01666 0.533333L2.01666 1.35C2.01666 1.35 2.41666 1.2 2.59999 1.5C2.59999 1.5 2.94999 1.45 3.06666 1.7C3.26666 1.66667 3.44999 1.8 3.48332 2L3.48332 2.08333C3.48332 2.08333 3.46666 3.3 3.43332 3.5C3.39999 3.7 3.33332 3.83333 3.19999 3.83333L1.66666 3.83333C1.46666 3.83333 1.44999 3.76667 1.38332 3.61667C1.34999 3.53333 1.28332 3.31667 1.16666 3.08333C1.01666 2.75 0.799989 2.45 0.533322 2.2C0.299989 1.98333 0.366656 1.08333 1.28332 2L1.28332 0.533333C1.28332 0.333333 1.44999 0.166667 1.64999 0.166667L1.64999 0.166667Z" id="Shape" fill="#E0E0E0" stroke="none" clip-path="url(#clip_2)" transform="translate(5 5)" />
        <path d="M1.64999 0.166667C1.84999 0.166667 2.01666 0.333333 2.01666 0.533333L2.01666 1.35C2.01666 1.35 2.41666 1.2 2.59999 1.5C2.59999 1.5 2.94999 1.45 3.06666 1.7C3.26666 1.66667 3.44999 1.8 3.48332 2L3.48332 2.08333C3.48332 2.08333 3.46666 3.3 3.43332 3.5C3.39999 3.7 3.33332 3.83333 3.19999 3.83333L1.66666 3.83333C1.46666 3.83333 1.44999 3.76667 1.38332 3.61667C1.34999 3.53333 1.28332 3.31667 1.16666 3.08333C1.01666 2.75 0.799989 2.45 0.533322 2.2C0.299989 1.98333 0.366656 1.08333 1.28332 2L1.28332 0.533333C1.28332 0.333333 1.44999 0.166667 1.64999 0.166667L1.64999 0.166667Z" id="Shape" fill="#E0E0E0" stroke="none" clip-path="url(#clip_2)" transform="translate(5 5)" />
      </g>
    </g>
    <g id="Group" transform="translate(1.0162137 0.99984425)" clip-path="url(#clip_1)">
      <path d="M6.98379 0.000155747C6.72443 0.0038678 6.47666 0.10821 6.29279 0.291156L4.29279 2.29116L5.70679 3.70516L6.99979 2.41216L8.29279 3.70516L9.70679 2.29116L7.70679 0.291156C7.51506 0.100369 7.25422 -0.00461453 6.98379 0.000155747L6.98379 0.000155747ZM2.29279 4.29116L0.292786 6.29116C-0.0975955 6.68166 -0.0975955 7.31466 0.292786 7.70516L2.29279 9.70516L3.70679 8.29116L2.41379 6.99816L3.70679 5.70516L2.29279 4.29116L2.29279 4.29116ZM11.7068 4.29116L10.2928 5.70516L11.5858 6.99816L10.2928 8.29116L11.7068 9.70516L13.7068 7.70516C14.0972 7.31466 14.0972 6.68166 13.7068 6.29116L11.7068 4.29116L11.7068 4.29116ZM5.70679 10.2912L4.29279 11.7052L6.29279 13.7052C6.68329 14.0955 7.31629 14.0955 7.70679 13.7052L9.70679 11.7052L8.29279 10.2912L6.99979 11.5842L5.70679 10.2912L5.70679 10.2912Z" id="Shape" fill="#E0E0E0" fill-rule="evenodd" stroke="none" />
      <path d="M6 5C6 4.44772 6.44772 4 7 4C7.55228 4 8 4.44772 8 5C8 5.55228 7.55228 6 7 6C6.44772 6 6 5.55228 6 5Z" id="Oval" fill="#8DA5F3" fill-rule="evenodd" stroke="none" />
      <g id="touch-f">
        <path d="M4 0L4 0L4 4L0 4L0 0L4 0Z" id="touch-f" fill="none" stroke="none" transform="translate(5 5)" />
        <path d="M1.64999 0.166667C1.84999 0.166667 2.01666 0.333333 2.01666 0.533333L2.01666 1.35C2.01666 1.35 2.41666 1.2 2.59999 1.5C2.59999 1.5 2.94999 1.45 3.06666 1.7C3.26666 1.66667 3.44999 1.8 3.48332 2L3.48332 2.08333C3.48332 2.08333 3.46666 3.3 3.43332 3.5C3.39999 3.7 3.33332 3.83333 3.19999 3.83333L1.66666 3.83333C1.46666 3.83333 1.44999 3.76667 1.38332 3.61667C1.34999 3.53333 1.28332 3.31667 1.16666 3.08333C1.01666 2.75 0.799989 2.45 0.533322 2.2C0.299989 1.98333 0.366656 1.08333 1.28332 2L1.28332 0.533333C1.28332 0.333333 1.44999 0.166667 1.64999 0.166667L1.64999 0.166667Z" id="Shape" fill="#E0E0E0" stroke="none" clip-path="url(#clip_2)" transform="translate(5 5)" />
        <path d="M1.64999 0.166667C1.84999 0.166667 2.01666 0.333333 2.01666 0.533333L2.01666 1.35C2.01666 1.35 2.41666 1.2 2.59999 1.5C2.59999 1.5 2.94999 1.45 3.06666 1.7C3.26666 1.66667 3.44999 1.8 3.48332 2L3.48332 2.08333C3.48332 2.08333 3.46666 3.3 3.43332 3.5C3.39999 3.7 3.33332 3.83333 3.19999 3.83333L1.66666 3.83333C1.46666 3.83333 1.44999 3.76667 1.38332 3.61667C1.34999 3.53333 1.28332 3.31667 1.16666 3.08333C1.01666 2.75 0.799989 2.45 0.533322 2.2C0.299989 1.98333 0.366656 1.08333 1.28332 2L1.28332 0.533333C1.28332 0.333333 1.44999 0.166667 1.64999 0.166667L1.64999 0.166667Z" id="Shape" fill="#E0E0E0" stroke="none" clip-path="url(#clip_2)" transform="translate(5 5)" />
      </g>
    </g>
  </g>
</svg>