<?xml version="1.0" encoding="utf-8"?>
<svg width="16px" height="16px" viewBox="0 0 16 16" version="1.1" xmlns:xlink="http://www.w3.org/1999/xlink" xmlns="http://www.w3.org/2000/svg">
  <defs>
    <path d="M16 0L16 0L16 16L0 16L0 0L16 0Z" id="path_1" />
    <clipPath id="clip_1">
      <use xlink:href="#path_1" clip-rule="evenodd" fill-rule="evenodd" />
    </clipPath>
  </defs>
  <g id="MoveIcon">
    <path d="M16 0L16 0L16 16L0 16L0 0L16 0Z" id="MoveIcon" fill="none" stroke="none" />
    <g id="Group" transform="translate(1.0162137 0.99984425)" clip-path="url(#clip_1)">
      <path d="M6.98379 0.000155747C6.72443 0.0038678 6.47666 0.10821 6.29279 0.291156L4.29279 2.29116L5.70679 3.70516L6.99979 2.41216L8.29279 3.70516L9.70679 2.29116L7.70679 0.291156C7.51506 0.100369 7.25422 -0.00461453 6.98379 0.000155747L6.98379 0.000155747ZM2.29279 4.29116L0.292786 6.29116C-0.0975955 6.68166 -0.0975955 7.31466 0.292786 7.70516L2.29279 9.70516L3.70679 8.29116L2.41379 6.99816L3.70679 5.70516L2.29279 4.29116L2.29279 4.29116ZM11.7068 4.29116L10.2928 5.70516L11.5858 6.99816L10.2928 8.29116L11.7068 9.70516L13.7068 7.70516C14.0972 7.31466 14.0972 6.68166 13.7068 6.29116L11.7068 4.29116L11.7068 4.29116ZM5.70679 10.2912L4.29279 11.7052L6.29279 13.7052C6.68329 14.0955 7.31629 14.0955 7.70679 13.7052L9.70679 11.7052L8.29279 10.2912L6.99979 11.5842L5.70679 10.2912L5.70679 10.2912Z" id="Shape" fill="#E0E0E0" fill-rule="evenodd" stroke="none" />
    </g>
    <g id="Group" transform="translate(1.0162137 0.99984425)" clip-path="url(#clip_1)">
      <path d="M6.98379 0.000155747C6.72443 0.0038678 6.47666 0.10821 6.29279 0.291156L4.29279 2.29116L5.70679 3.70516L6.99979 2.41216L8.29279 3.70516L9.70679 2.29116L7.70679 0.291156C7.51506 0.100369 7.25422 -0.00461453 6.98379 0.000155747L6.98379 0.000155747ZM2.29279 4.29116L0.292786 6.29116C-0.0975955 6.68166 -0.0975955 7.31466 0.292786 7.70516L2.29279 9.70516L3.70679 8.29116L2.41379 6.99816L3.70679 5.70516L2.29279 4.29116L2.29279 4.29116ZM11.7068 4.29116L10.2928 5.70516L11.5858 6.99816L10.2928 8.29116L11.7068 9.70516L13.7068 7.70516C14.0972 7.31466 14.0972 6.68166 13.7068 6.29116L11.7068 4.29116L11.7068 4.29116ZM5.70679 10.2912L4.29279 11.7052L6.29279 13.7052C6.68329 14.0955 7.31629 14.0955 7.70679 13.7052L9.70679 11.7052L8.29279 10.2912L6.99979 11.5842L5.70679 10.2912L5.70679 10.2912Z" id="Shape" fill="#E0E0E0" fill-rule="evenodd" stroke="none" />
    </g>
  </g>
</svg>