<?xml version="1.0" encoding="utf-8"?>
<svg width="16px" height="16px" viewBox="0 0 16 16" version="1.1" xmlns:xlink="http://www.w3.org/1999/xlink" xmlns="http://www.w3.org/2000/svg">
  <defs>
    <path d="M16 0L16 0L16 16L0 16L0 0L16 0Z" id="path_1" />
    <path d="M6 0L6 0L6 6L0 6L0 0L6 0Z" id="path_2" />
    <clipPath id="clip_1">
      <use xlink:href="#path_1" clip-rule="evenodd" fill-rule="evenodd" />
    </clipPath>
    <clipPath id="clip_2">
      <use xlink:href="#path_2" clip-rule="evenodd" fill-rule="evenodd" />
    </clipPath>
  </defs>
  <g id="ScaleIcon">
    <path d="M16 0L16 0L16 16L0 16L0 0L16 0Z" id="ScaleIcon" fill="none" stroke="none" />
    <g id="Group" transform="translate(1 1)" clip-path="url(#clip_1)">
      <path d="M8 0C7.44771 0 7 0.447715 7 1C7 1.55228 7.44771 2 8 2L10.586 2L9.293 3.293L10.707 4.707L12 3.414L12 6C12 6.55228 12.4477 7 13 7C13.5523 7 14 6.55228 14 6L14 1C14 0.447715 13.5523 0 13 0L8 0ZM2 8C2 7.44771 1.55228 7 1 7C0.447715 7 0 7.44772 0 8L0 13C0 13.5523 0.447715 14 1 14L6 14C6.55228 14 7 13.5523 7 13C7 12.4477 6.55228 12 6 12L3.414 12L4.707 10.707L3.293 9.293L2 10.586L2 8L2 8Z" id="Shape" fill="#E0E0E0" fill-rule="evenodd" stroke="none" />
      <g id="Sprite2D">
        <path d="M6 0L6 0L6 6L0 6L0 0L6 0Z" id="Sprite2D" fill="none" stroke="none" transform="translate(4 4)" />
        <path d="M1.875 0.375C1.04657 0.375 0.375 1.04657 0.375 1.875L0.375 4.125C0.375 4.95343 1.04657 5.625 1.875 5.625L4.125 5.625C4.95343 5.625 5.625 4.95343 5.625 4.125L5.625 1.875C5.625 1.04657 4.95343 0.375 4.125 0.375L1.875 0.375ZM1.125 2.625C1.125 2.41789 1.29289 2.25 1.5 2.25C1.70711 2.25 1.875 2.41789 1.875 2.625L1.875 3.375C1.875 3.58211 1.70711 3.75 1.5 3.75C1.29289 3.75 1.125 3.58211 1.125 3.375L1.125 2.625ZM4.875 3.375C4.875 3.58211 4.70711 3.75 4.5 3.75C4.29289 3.75 4.125 3.58211 4.125 3.375L4.125 2.625C4.125 2.41789 4.29289 2.25 4.5 2.25C4.70711 2.25 4.875 2.41789 4.875 2.625L4.875 3.375ZM4.06052 4.81051C3.47477 5.39608 2.52527 5.39608 1.93952 4.81051C1.7974 4.66337 1.79943 4.42947 1.94408 4.28482C2.08873 4.14017 2.32262 4.13814 2.46977 4.28026C2.76264 4.57304 3.23739 4.57304 3.53027 4.28026C3.67741 4.13814 3.9113 4.14017 4.05595 4.28483C4.2006 4.42948 4.20263 4.66337 4.06052 4.81051L4.06052 4.81051Z" id="Shape" fill="#E0E0E0" fill-rule="evenodd" stroke="none" clip-path="url(#clip_2)" transform="translate(4 4)" />
        <path d="M1.875 0.375C1.04657 0.375 0.375 1.04657 0.375 1.875L0.375 4.125C0.375 4.95343 1.04657 5.625 1.875 5.625L4.125 5.625C4.95343 5.625 5.625 4.95343 5.625 4.125L5.625 1.875C5.625 1.04657 4.95343 0.375 4.125 0.375L1.875 0.375ZM1.125 2.625C1.125 2.41789 1.29289 2.25 1.5 2.25C1.70711 2.25 1.875 2.41789 1.875 2.625L1.875 3.375C1.875 3.58211 1.70711 3.75 1.5 3.75C1.29289 3.75 1.125 3.58211 1.125 3.375L1.125 2.625ZM4.875 3.375C4.875 3.58211 4.70711 3.75 4.5 3.75C4.29289 3.75 4.125 3.58211 4.125 3.375L4.125 2.625C4.125 2.41789 4.29289 2.25 4.5 2.25C4.70711 2.25 4.875 2.41789 4.875 2.625L4.875 3.375ZM4.06052 4.81051C3.47477 5.39608 2.52527 5.39608 1.93952 4.81051C1.7974 4.66337 1.79943 4.42947 1.94408 4.28482C2.08873 4.14017 2.32262 4.13814 2.46977 4.28026C2.76264 4.57304 3.23739 4.57304 3.53027 4.28026C3.67741 4.13814 3.9113 4.14017 4.05595 4.28483C4.2006 4.42948 4.20263 4.66337 4.06052 4.81051L4.06052 4.81051Z" id="Shape" fill="#E0E0E0" fill-rule="evenodd" stroke="none" clip-path="url(#clip_2)" transform="translate(4 4)" />
      </g>
    </g>
    <g id="Group" transform="translate(1 1)" clip-path="url(#clip_1)">
      <path d="M8 0C7.44771 0 7 0.447715 7 1C7 1.55228 7.44771 2 8 2L10.586 2L9.293 3.293L10.707 4.707L12 3.414L12 6C12 6.55228 12.4477 7 13 7C13.5523 7 14 6.55228 14 6L14 1C14 0.447715 13.5523 0 13 0L8 0ZM2 8C2 7.44771 1.55228 7 1 7C0.447715 7 0 7.44772 0 8L0 13C0 13.5523 0.447715 14 1 14L6 14C6.55228 14 7 13.5523 7 13C7 12.4477 6.55228 12 6 12L3.414 12L4.707 10.707L3.293 9.293L2 10.586L2 8L2 8Z" id="Shape" fill="#E0E0E0" fill-rule="evenodd" stroke="none" />
      <g id="Sprite2D">
        <path d="M6 0L6 0L6 6L0 6L0 0L6 0Z" id="Sprite2D" fill="none" stroke="none" transform="translate(4 4)" />
        <path d="M1.875 0.375C1.04657 0.375 0.375 1.04657 0.375 1.875L0.375 4.125C0.375 4.95343 1.04657 5.625 1.875 5.625L4.125 5.625C4.95343 5.625 5.625 4.95343 5.625 4.125L5.625 1.875C5.625 1.04657 4.95343 0.375 4.125 0.375L1.875 0.375ZM1.125 2.625C1.125 2.41789 1.29289 2.25 1.5 2.25C1.70711 2.25 1.875 2.41789 1.875 2.625L1.875 3.375C1.875 3.58211 1.70711 3.75 1.5 3.75C1.29289 3.75 1.125 3.58211 1.125 3.375L1.125 2.625ZM4.875 3.375C4.875 3.58211 4.70711 3.75 4.5 3.75C4.29289 3.75 4.125 3.58211 4.125 3.375L4.125 2.625C4.125 2.41789 4.29289 2.25 4.5 2.25C4.70711 2.25 4.875 2.41789 4.875 2.625L4.875 3.375ZM4.06052 4.81051C3.47477 5.39608 2.52527 5.39608 1.93952 4.81051C1.7974 4.66337 1.79943 4.42947 1.94408 4.28482C2.08873 4.14017 2.32262 4.13814 2.46977 4.28026C2.76264 4.57304 3.23739 4.57304 3.53027 4.28026C3.67741 4.13814 3.9113 4.14017 4.05595 4.28483C4.2006 4.42948 4.20263 4.66337 4.06052 4.81051L4.06052 4.81051Z" id="Shape" fill="#E0E0E0" fill-rule="evenodd" stroke="none" clip-path="url(#clip_2)" transform="translate(4 4)" />
        <path d="M1.875 0.375C1.04657 0.375 0.375 1.04657 0.375 1.875L0.375 4.125C0.375 4.95343 1.04657 5.625 1.875 5.625L4.125 5.625C4.95343 5.625 5.625 4.95343 5.625 4.125L5.625 1.875C5.625 1.04657 4.95343 0.375 4.125 0.375L1.875 0.375ZM1.125 2.625C1.125 2.41789 1.29289 2.25 1.5 2.25C1.70711 2.25 1.875 2.41789 1.875 2.625L1.875 3.375C1.875 3.58211 1.70711 3.75 1.5 3.75C1.29289 3.75 1.125 3.58211 1.125 3.375L1.125 2.625ZM4.875 3.375C4.875 3.58211 4.70711 3.75 4.5 3.75C4.29289 3.75 4.125 3.58211 4.125 3.375L4.125 2.625C4.125 2.41789 4.29289 2.25 4.5 2.25C4.70711 2.25 4.875 2.41789 4.875 2.625L4.875 3.375ZM4.06052 4.81051C3.47477 5.39608 2.52527 5.39608 1.93952 4.81051C1.7974 4.66337 1.79943 4.42947 1.94408 4.28482C2.08873 4.14017 2.32262 4.13814 2.46977 4.28026C2.76264 4.57304 3.23739 4.57304 3.53027 4.28026C3.67741 4.13814 3.9113 4.14017 4.05595 4.28483C4.2006 4.42948 4.20263 4.66337 4.06052 4.81051L4.06052 4.81051Z" id="Shape" fill="#E0E0E0" fill-rule="evenodd" stroke="none" clip-path="url(#clip_2)" transform="translate(4 4)" />
      </g>
    </g>
  </g>
</svg>