<?xml version="1.0" encoding="utf-8"?>
<svg width="16px" height="16px" viewBox="0 0 16 16" version="1.1" xmlns:xlink="http://www.w3.org/1999/xlink" xmlns="http://www.w3.org/2000/svg">
  <defs>
    <path d="M16 0L16 0L16 16L0 16L0 0L16 0Z" id="path_1" />
    <clipPath id="clip_1">
      <use xlink:href="#path_1" clip-rule="evenodd" fill-rule="evenodd" />
    </clipPath>
  </defs>
  <g id="WaveNodeIcon">
    <path d="M16 0L16 0L16 16L0 16L0 0L16 0Z" id="WaveNodeIcon" fill="none" stroke="none" />
    <path d="M9.8995 1.41421C9.50898 1.02369 8.87581 1.02369 8.48529 1.41421C8.09477 1.80474 8.09477 2.4379 8.48529 2.82843C11.6095 5.95262 11.6095 11.0179 8.48529 14.1421C8.09477 14.5327 8.09477 15.1658 8.48529 15.5563C8.87581 15.9469 9.50898 15.9469 9.8995 15.5563C13.8047 11.6511 13.8047 5.31946 9.8995 1.41421L9.8995 1.41421ZM7.07108 4.24264C6.68055 3.85212 6.04739 3.85212 5.65686 4.24264C5.26634 4.63316 5.26634 5.26633 5.65686 5.65685C7.21896 7.21895 7.21896 9.75161 5.65686 11.3137C5.26634 11.7042 5.26634 12.3374 5.65686 12.7279C6.04739 13.1184 6.68055 13.1184 7.07108 12.7279C9.41422 10.3848 9.41422 6.58579 7.07108 4.24264L7.07108 4.24264ZM4.24265 7.07107C3.4616 6.29002 2.19527 6.29002 1.41422 7.07107C0.633174 7.85212 0.633174 9.11845 1.41422 9.89949C2.19527 10.6805 3.4616 10.6805 4.24265 9.8995C5.0237 9.11845 5.0237 7.85212 4.24265 7.07107L4.24265 7.07107ZM3.53554 7.77817C3.92612 8.16875 3.92612 8.80181 3.53554 9.19239L3.53554 9.19239C3.14497 9.58297 2.51191 9.58296 2.12133 9.19239L2.12133 9.19239C1.73075 8.80181 1.73075 8.16875 2.12133 7.77817L2.12133 7.77817C2.51191 7.3876 3.14497 7.3876 3.53554 7.77817Z" id="Shape" fill="#E0E0E0" fill-rule="evenodd" stroke="none" clip-path="url(#clip_1)" />
    <path d="M9.8995 1.41421C9.50898 1.02369 8.87581 1.02369 8.48529 1.41421C8.09477 1.80474 8.09477 2.4379 8.48529 2.82843C11.6095 5.95262 11.6095 11.0179 8.48529 14.1421C8.09477 14.5327 8.09477 15.1658 8.48529 15.5563C8.87581 15.9469 9.50898 15.9469 9.8995 15.5563C13.8047 11.6511 13.8047 5.31946 9.8995 1.41421L9.8995 1.41421ZM7.07108 4.24264C6.68055 3.85212 6.04739 3.85212 5.65686 4.24264C5.26634 4.63316 5.26634 5.26633 5.65686 5.65685C7.21896 7.21895 7.21896 9.75161 5.65686 11.3137C5.26634 11.7042 5.26634 12.3374 5.65686 12.7279C6.04739 13.1184 6.68055 13.1184 7.07108 12.7279C9.41422 10.3848 9.41422 6.58579 7.07108 4.24264L7.07108 4.24264ZM4.24265 7.07107C3.4616 6.29002 2.19527 6.29002 1.41422 7.07107C0.633174 7.85212 0.633174 9.11845 1.41422 9.89949C2.19527 10.6805 3.4616 10.6805 4.24265 9.8995C5.0237 9.11845 5.0237 7.85212 4.24265 7.07107L4.24265 7.07107ZM3.53554 7.77817C3.92612 8.16875 3.92612 8.80181 3.53554 9.19239L3.53554 9.19239C3.14497 9.58297 2.51191 9.58296 2.12133 9.19239L2.12133 9.19239C1.73075 8.80181 1.73075 8.16875 2.12133 7.77817L2.12133 7.77817C2.51191 7.3876 3.14497 7.3876 3.53554 7.77817Z" id="Shape" fill="#E0E0E0" fill-rule="evenodd" stroke="none" clip-path="url(#clip_1)" />
  </g>
</svg>